<svg xmlns="http://www.w3.org/2000/svg" width="155.12" height="47.81" viewBox="0 0 155.12 47.81">
  <path id="パス_801" data-name="パス 801" d="M-49.175-46.69h-7l-7.84,32.83-7.91-32.83h-6.93L-68-2.73A4.084,4.084,0,0,0-64.085.56a4.031,4.031,0,0,0,3.99-3.29ZM-25.725,0h6.79l-10.22-43.33c-.63-2.66-1.96-3.92-4.13-3.92-2.24,0-3.5,1.19-4.13,3.92L-47.635,0h6.79l2.1-8.89h10.85Zm-11.41-15.89,3.85-16.31,3.85,16.31Zm33.32,9.03V-41.02c0-3.71-1.96-5.95-5.11-5.95h-2.03V0H8.925V-6.86Zm45.64-40.11h-2.03c-3.15,0-5.11,2.24-5.11,5.95v28.07c0,3.85-2.1,6.58-5.04,6.58h-.56c-2.87,0-4.97-2.73-4.97-6.58V-46.69h-7.14v32.97c0,4.69,1.19,8.05,3.78,10.71a11.544,11.544,0,0,0,8.33,3.5h.56a11.585,11.585,0,0,0,8.4-3.5c2.59-2.66,3.78-5.95,3.78-10.71Zm18.55,25.9h5.67c3.64,0,5.95-1.96,5.95-5.11v-1.75H60.375V-37.1c0-1.68.91-2.73,2.31-2.73h12.6v-6.86H53.235V0h23.03V-6.86H60.375Z" transform="translate(78.855 47.25)" fill="#121b62"/>
</svg>
