<svg xmlns="http://www.w3.org/2000/svg" width="449.85" height="102.3" viewBox="0 0 449.85 102.3">
  <path id="パス_800" data-name="パス 800" d="M60.45-85.8c-5.7-10.35-13.35-15.3-23.7-15.3H34.5c-13.05,0-23.7,11.7-23.7,25.95v1.35c0,6.6,2.85,12,8.85,16.95L43.8-37.05c2.85,2.4,4.05,5.1,4.05,9.9v2.1A11.3,11.3,0,0,1,36.6-13.5h-.9c-6.45,0-11.1-5.1-11.25-12v-3.6H9.15v3.45c0,8.1,2.55,14.1,8.1,19.35a24.539,24.539,0,0,0,18.3,7.35H36.9A24.437,24.437,0,0,0,55.05-6.3c5.85-5.55,8.1-10.95,8.1-19.5v-3.6c0-7.8-1.95-12.6-7.2-16.95l-26.4-22.2a9.992,9.992,0,0,1-3.45-7.2v-.75c0-4.95,4.5-9.9,9.15-9.9h1.5a8.247,8.247,0,0,1,6.15,2.25c3,2.4,4.95,3.3,7.95,3.3,2.55,0,4.65-.9,7.05-2.85Zm39.3,40.65H111.9c7.8,0,12.75-4.2,12.75-10.95v-3.75H99.75V-79.5c0-3.6,1.95-5.85,4.95-5.85h27v-14.7H84.45V0H133.8V-14.7H99.75ZM209.7,0,194.1-47.7c6.6-5.1,9.6-11.7,9.6-21v-6c0-15.45-9.45-25.35-23.85-25.35h-24.9V0h15.3V-43.5h9L193.5,0ZM170.25-58.2V-79.35c0-3.75,1.95-6,4.95-6h4.65c5.85,0,8.55,3.45,8.55,10.65v6.15c0,6.75-2.85,10.35-7.8,10.35ZM282.9-100.05h-15L251.1-29.7l-16.95-70.35H219.3l23.25,94.2c1.05,4.2,4.35,7.05,8.4,7.05,4.2,0,7.5-2.7,8.55-7.05Zm17.85,0V0h15.3V-100.05Zm85.35,8.4c-7.95-7.65-11.85-9.45-19.8-9.45h-1.35a24.737,24.737,0,0,0-17.85,7.5c-5.55,5.55-8.1,12.9-8.1,22.95V-29.4c0,10.05,2.55,17.25,8.1,22.8a24.39,24.39,0,0,0,18,7.65h1.35c10.2,0,17.1-4.65,23.4-15.3l-2.7-2.1c-2.55-2.1-4.5-2.85-7.05-2.85-2.85,0-4.95.9-7.95,3.3a8.589,8.589,0,0,1-5.7,2.25H365.1c-6.15,0-10.8-5.85-10.8-13.95V-72.15c0-8.55,4.35-14.25,10.65-14.25h1.35c3.15,0,4.95,1.05,9.15,5.4Zm38.85,46.5H437.1c7.8,0,12.75-4.2,12.75-10.95v-3.75h-24.9V-79.5c0-3.6,1.95-5.85,4.95-5.85h27v-14.7H409.65V0H459V-14.7H424.95Z" transform="translate(-9.15 101.1)" fill="#121b62"/>
</svg>
