<svg xmlns="http://www.w3.org/2000/svg" width="209.93" height="47.74" viewBox="0 0 209.93 47.74">
  <path id="パス_802" data-name="パス 802" d="M-80.955-40.04c-2.66-4.83-6.23-7.14-11.06-7.14h-1.05c-6.09,0-11.06,5.46-11.06,12.11v.63c0,3.08,1.33,5.6,4.13,7.91l11.27,9.24c1.33,1.12,1.89,2.38,1.89,4.62v.98a5.275,5.275,0,0,1-5.25,5.39h-.42c-3.01,0-5.18-2.38-5.25-5.6v-1.68h-7.14v1.61a11.546,11.546,0,0,0,3.78,9.03A11.452,11.452,0,0,0-92.575.49h.63a11.4,11.4,0,0,0,8.47-3.43,11.154,11.154,0,0,0,3.78-9.1v-1.68c0-3.64-.91-5.88-3.36-7.91l-12.32-10.36a4.663,4.663,0,0,1-1.61-3.36v-.35c0-2.31,2.1-4.62,4.27-4.62h.7a3.849,3.849,0,0,1,2.87,1.05,5.363,5.363,0,0,0,3.71,1.54,4.973,4.973,0,0,0,3.29-1.33Zm18.34,18.97h5.67c3.64,0,5.95-1.96,5.95-5.11v-1.75h-11.62V-37.1c0-1.68.91-2.73,2.31-2.73h12.6v-6.86h-22.05V0h23.03V-6.86h-15.89ZM-11.3,0l-7.28-22.26c3.08-2.38,4.48-5.46,4.48-9.8v-2.8c0-7.21-4.41-11.83-11.13-11.83h-11.62V0h7.14V-20.3h4.2L-18.865,0Zm-18.41-27.16v-9.87c0-1.75.91-2.8,2.31-2.8h2.17c2.73,0,3.99,1.61,3.99,4.97v2.87c0,3.15-1.33,4.83-3.64,4.83Zm52.57-19.53h-7L8.015-13.86.105-46.69h-6.93L4.025-2.73A4.084,4.084,0,0,0,7.945.56a4.031,4.031,0,0,0,3.99-3.29Zm8.33,0V0h7.14V-46.69Zm39.83,3.92c-3.71-3.57-5.53-4.41-9.24-4.41h-.63a11.544,11.544,0,0,0-8.33,3.5c-2.59,2.59-3.78,6.02-3.78,10.71v19.25c0,4.69,1.19,8.05,3.78,10.64a11.382,11.382,0,0,0,8.4,3.57h.63c4.76,0,7.98-2.17,10.92-7.14l-1.26-.98a4.765,4.765,0,0,0-3.29-1.33,5.485,5.485,0,0,0-3.71,1.54,4.008,4.008,0,0,1-2.66,1.05h-.63c-2.87,0-5.04-2.73-5.04-6.51V-33.67c0-3.99,2.03-6.65,4.97-6.65h.63c1.47,0,2.31.49,4.27,2.52Zm18.13,21.7h5.67c3.64,0,5.95-1.96,5.95-5.11v-1.75H89.145V-37.1c0-1.68.91-2.73,2.31-2.73h12.6v-6.86H82V0h23.03V-6.86H89.145Z" transform="translate(104.895 47.18)" fill="#121b62"/>
</svg>
