<svg xmlns="http://www.w3.org/2000/svg" width="537.759" height="391.215" viewBox="0 0 537.759 391.215">
  <g id="グループ_288" data-name="グループ 288" transform="translate(0 0)" opacity="0.041">
    <g id="グループ_4" data-name="グループ 4" transform="translate(0 0.011)">
      <rect id="長方形_9" data-name="長方形 9" width="372.908" height="20.001" transform="matrix(0.792, -0.611, 0.611, 0.792, 0, 227.706)" fill="#121b62"/>
      <rect id="長方形_10" data-name="長方形 10" width="372.908" height="20.001" transform="matrix(0.792, -0.611, 0.611, 0.792, 230.232, 375.354)" fill="#121b62"/>
    </g>
    <g id="グループ_5" data-name="グループ 5" transform="translate(0.008 0)">
      <rect id="長方形_11" data-name="長方形 11" width="20.001" height="372.908" transform="translate(230.232 15.838) rotate(-52.361)" fill="#121b62"/>
      <rect id="長方形_12" data-name="長方形 12" width="20.001" height="372.908" transform="translate(0 163.486) rotate(-52.361)" fill="#121b62"/>
    </g>
    <g id="グループ_6" data-name="グループ 6" transform="translate(179.534 116.561)">
      <path id="パス_7" data-name="パス 7" d="M207.387,287.988c-11.305-7.966-22.984-12.046-30.024-14.459l9.453-16.678A101.267,101.267,0,0,1,216.839,270.2Zm6.3,57.821c-1.486,3.34-7.412,16.305-7.412,18.531,0,.56.553,3.706.553,4.267,0,1.293-1.293,1.666-2.407,1.666a7.94,7.94,0,0,1-3.893-.926l-19.271-9.453c7.593-11.118,21.125-38.549,28.91-60.414l16.859,13.158C224.065,320.977,216.093,340.435,213.686,345.808Zm6.486-100.257c-8.706-7.232-21.125-12.792-27.057-15.572l8.9-16.125a122.46,122.46,0,0,1,27.8,14.092Zm74.686,28.724v9.639h45.036V360.08c0,11.859-5.933,13.532-27.8,13.712l-7.973-20.938a69.749,69.749,0,0,0,10.192.74c4.633,0,7.046-.74,7.046-5.56V300.773h-26.5v28.544h4.82v-20.2l15.752.56c1.113,0,3.706.367,3.706,2.406a1.653,1.653,0,0,1-.927,1.486c-2.04,1.853-2.78,2.407-2.78,3.333v27.611H272.807v9.266H257.049v-45.4l15.2.74c.927,0,3.706.56,3.706,2.6,0,.553-.187.926-1.48,1.853a3.408,3.408,0,0,0-1.667,2.593v13.159h5.186V300.773H250.563v72.466h-18.9V283.914h46.329v-9.639H228.511V257.784h28.357V246.292H234.631V229.24h22.238V213.3l19.645,1.3c2.407.18,4.073.74,4.073,2.406a2.01,2.01,0,0,1-1.293,1.853c-.747.746-2.593,1.853-2.593,2.593v7.786h19.272V212.935l20.385.92c1.853,0,5.193.373,5.193,2.6,0,.926-.927,1.666-1.673,2.22-3.333,1.853-3.706,2.04-3.706,2.78v7.786h20.944v17.052H316.17v11.492h25.577v16.492Zm1.113-27.984H276.7v11.492h19.272Z" transform="translate(-177.363 -212.935)" fill="#121b62"/>
    </g>
  </g>
</svg>
