<svg xmlns="http://www.w3.org/2000/svg" width="512.1" height="102.3" viewBox="0 0 512.1 102.3">
  <path id="パス_886" data-name="パス 886" d="M57.6-91.65c-7.95-7.65-11.85-9.45-19.8-9.45H36.45A24.737,24.737,0,0,0,18.6-93.6c-5.55,5.55-8.1,12.9-8.1,22.95V-29.4c0,10.05,2.55,17.25,8.1,22.8a24.39,24.39,0,0,0,18,7.65h1.35c10.2,0,17.1-4.65,23.4-15.3l-2.7-2.1c-2.55-2.1-4.5-2.85-7.05-2.85-2.85,0-4.95.9-7.95,3.3a8.589,8.589,0,0,1-5.7,2.25H36.6c-6.15,0-10.8-5.85-10.8-13.95V-72.15c0-8.55,4.35-14.25,10.65-14.25H37.8c3.15,0,4.95,1.05,9.15,5.4ZM79.5-29.4c0,10.65,2.25,16.95,8.1,22.95a24.737,24.737,0,0,0,17.85,7.5h1.2a24.737,24.737,0,0,0,17.85-7.5c5.85-6,8.1-12.3,8.1-22.95V-70.65c0-10.65-2.25-16.95-8.1-22.95a24.737,24.737,0,0,0-17.85-7.5h-1.2A24.737,24.737,0,0,0,87.6-93.6c-5.85,6-8.1,12.3-8.1,22.95ZM94.8-72.3c0-8.4,4.35-14.1,10.65-14.1h1.2c6.3,0,10.65,5.7,10.65,14.1v44.55c0,8.4-4.35,14.1-10.65,14.1h-1.2c-6.3,0-10.65-5.7-10.65-14.1Zm119.55-27.75L191.4-35.55l-23.1-64.5H155.4V0h15.3V-57l13.05,36.6c1.35,3.75,4.2,5.85,7.65,5.85,3.3,0,6.15-2.1,7.5-5.85L211.95-57V0h15.3V-100.05Zm37.65,0V0h15.3V-37.65c0-3.6,1.95-5.85,4.95-5.85h4.65c14.55,0,23.85-9.9,23.85-25.2v-5.85c0-15.6-9.3-25.5-24-25.5ZM267.3-58.2V-85.35h9.6c5.85,0,8.55,3.45,8.55,10.5v6.3c0,6.75-2.85,10.35-7.8,10.35ZM356.85,0H371.4L349.5-92.85c-1.35-5.7-4.2-8.4-8.85-8.4-4.8,0-7.5,2.55-8.85,8.4L309.9,0h14.55l4.5-19.05H352.2ZM332.4-34.05,340.65-69l8.25,34.95ZM388.5,0h15.3V-64.35L428.7,0h13.2V-100.05H426.6v60.3L405.75-94.5c-1.65-4.35-4.65-6.6-8.55-6.6a8.739,8.739,0,0,0-6.15,2.4c-1.95,1.95-2.55,4.2-2.55,9.45Zm70.95-100.05,22.2,49.35a15.757,15.757,0,0,1,1.65,7.2V0h15.3V-43.65a15.591,15.591,0,0,1,1.65-7.05l22.35-49.35H506.1L490.95-65.4l-15-34.65Z" transform="translate(-10.5 101.25)" fill="#121b62"/>
</svg>
