<svg xmlns="http://www.w3.org/2000/svg" width="580.16" height="47.74" viewBox="0 0 580.16 47.74">
  <path id="パス_876" data-name="パス 876" d="M-290.08-46.69V0h12.18a11.658,11.658,0,0,0,8.75-3.5c2.73-2.66,3.85-5.74,3.85-10.71V-32.48c0-4.97-1.05-7.91-3.78-10.64a11.869,11.869,0,0,0-9.03-3.57Zm7.14,39.83V-37.1c0-1.68.91-2.73,2.31-2.73h2.87c3.29,0,5.32,2.52,5.32,6.58v19.81c0,4.13-1.96,6.58-5.32,6.58Zm35.21-14.21h5.67c3.64,0,5.95-1.96,5.95-5.11v-1.75h-11.62V-37.1c0-1.68.91-2.73,2.31-2.73h12.6v-6.86h-22.05V0h23.03V-6.86h-15.89Zm53.27-25.62-10.71,30.1-10.78-30.1h-6.02V0h7.14V-26.6l6.09,17.08a3.757,3.757,0,0,0,3.57,2.73,3.74,3.74,0,0,0,3.5-2.73l6.09-17.08V0h7.14V-46.69ZM-157.71,0h6.79l-10.22-43.33c-.63-2.66-1.96-3.92-4.13-3.92-2.24,0-3.5,1.19-4.13,3.92L-179.62,0h6.79l2.1-8.89h10.85Zm-11.41-15.89,3.85-16.31,3.85,16.31ZM-142.94,0h7.14V-30.03L-124.18,0h6.16V-46.69h-7.14v28.14l-9.73-25.55a4.177,4.177,0,0,0-3.99-3.08,4.078,4.078,0,0,0-2.87,1.12c-.91.91-1.19,1.96-1.19,4.41Zm36.4-46.69V0h12.18a11.658,11.658,0,0,0,8.75-3.5c2.73-2.66,3.85-5.74,3.85-10.71V-32.48c0-4.97-1.05-7.91-3.78-10.64a11.869,11.869,0,0,0-9.03-3.57ZM-99.4-6.86V-37.1c0-1.68.91-2.73,2.31-2.73h2.87c3.29,0,5.32,2.52,5.32,6.58v19.81c0,4.13-1.96,6.58-5.32,6.58Zm44.66-39.83V0h7.14V-46.69ZM-36.05,0h7.14V-30.03L-17.29,0h6.16V-46.69h-7.14v28.14L-28-44.1a4.177,4.177,0,0,0-3.99-3.08,4.078,4.078,0,0,0-2.87,1.12c-.91.91-1.19,1.96-1.19,4.41ZM22.82-40.04c-2.66-4.83-6.23-7.14-11.06-7.14H10.71C4.62-47.18-.35-41.72-.35-35.07v.63c0,3.08,1.33,5.6,4.13,7.91l11.27,9.24c1.33,1.12,1.89,2.38,1.89,4.62v.98A5.275,5.275,0,0,1,11.69-6.3h-.42c-3.01,0-5.18-2.38-5.25-5.6v-1.68H-1.12v1.61A11.546,11.546,0,0,0,2.66-2.94,11.452,11.452,0,0,0,11.2.49h.63A11.4,11.4,0,0,0,20.3-2.94a11.154,11.154,0,0,0,3.78-9.1v-1.68c0-3.64-.91-5.88-3.36-7.91L8.4-31.99a4.663,4.663,0,0,1-1.61-3.36v-.35c0-2.31,2.1-4.62,4.27-4.62h.7a3.849,3.849,0,0,1,2.87,1.05,5.363,5.363,0,0,0,3.71,1.54,4.973,4.973,0,0,0,3.29-1.33Zm23.52.21h2.73c3.64,0,5.95-1.96,5.95-5.11v-1.75H31.22v6.86H39.2V0h7.14ZM79.31,0H86.1L75.88-43.33c-.63-2.66-1.96-3.92-4.13-3.92-2.24,0-3.5,1.19-4.13,3.92L57.4,0h6.79l2.1-8.89H77.14ZM67.9-15.89,71.75-32.2,75.6-15.89Zm33.32,9.03V-41.02c0-3.71-1.96-5.95-5.11-5.95H94.08V0h19.88V-6.86Zm27.3,0V-41.02c0-3.71-1.96-5.95-5.11-5.95h-2.03V0h19.88V-6.86ZM169.96,0h6.79L166.53-43.33c-.63-2.66-1.96-3.92-4.13-3.92-2.24,0-3.5,1.19-4.13,3.92L148.05,0h6.79l2.1-8.89h10.85ZM158.55-15.89,162.4-32.2l3.85,16.31Zm36.19-23.94h2.73c3.64,0,5.95-1.96,5.95-5.11v-1.75h-23.8v6.86h7.98V0h7.14Zm17.15-6.86V0h7.14V-46.69Zm17.85,32.97c0,4.97,1.05,7.91,3.78,10.71a11.544,11.544,0,0,0,8.33,3.5h.56a11.544,11.544,0,0,0,8.33-3.5c2.73-2.8,3.78-5.74,3.78-10.71V-32.97c0-4.97-1.05-7.91-3.78-10.71a11.544,11.544,0,0,0-8.33-3.5h-.56a11.544,11.544,0,0,0-8.33,3.5c-2.73,2.8-3.78,5.74-3.78,10.71Zm7.14-20.02c0-3.92,2.03-6.58,4.97-6.58h.56c2.94,0,4.97,2.66,4.97,6.58v20.79c0,3.92-2.03,6.58-4.97,6.58h-.56c-2.94,0-4.97-2.66-4.97-6.58ZM265.16,0h7.14V-30.03L283.92,0h6.16V-46.69h-7.14v28.14L273.21-44.1a4.177,4.177,0,0,0-3.99-3.08,4.078,4.078,0,0,0-2.87,1.12c-.91.91-1.19,1.96-1.19,4.41Z" transform="translate(290.08 47.25)" fill="#121b62"/>
</svg>
