<svg xmlns="http://www.w3.org/2000/svg" width="590.94" height="47.74" viewBox="0 0 590.94 47.74">
  <path id="パス_842" data-name="パス 842" d="M-294.7-46.69V0h7.14V-46.69ZM-276.01,0h7.14V-30.03L-257.25,0h6.16V-46.69h-7.14v28.14l-9.73-25.55a4.177,4.177,0,0,0-3.99-3.08,4.078,4.078,0,0,0-2.87,1.12c-.91.91-1.19,1.96-1.19,4.41Zm58.87-40.04c-2.66-4.83-6.23-7.14-11.06-7.14h-1.05c-6.09,0-11.06,5.46-11.06,12.11v.63c0,3.08,1.33,5.6,4.13,7.91l11.27,9.24c1.33,1.12,1.89,2.38,1.89,4.62v.98a5.275,5.275,0,0,1-5.25,5.39h-.42c-3.01,0-5.18-2.38-5.25-5.6v-1.68h-7.14v1.61a11.546,11.546,0,0,0,3.78,9.03A11.452,11.452,0,0,0-228.76.49h.63a11.4,11.4,0,0,0,8.47-3.43,11.154,11.154,0,0,0,3.78-9.1v-1.68c0-3.64-.91-5.88-3.36-7.91l-12.32-10.36a4.663,4.663,0,0,1-1.61-3.36v-.35c0-2.31,2.1-4.62,4.27-4.62h.7a3.849,3.849,0,0,1,2.87,1.05,5.363,5.363,0,0,0,3.71,1.54,4.973,4.973,0,0,0,3.29-1.33Zm35.91-6.93h-2.03c-3.15,0-5.11,2.24-5.11,5.95v28.07c0,3.85-2.1,6.58-5.04,6.58h-.56c-2.87,0-4.97-2.73-4.97-6.58V-46.69h-7.14v32.97c0,4.69,1.19,8.05,3.78,10.71a11.544,11.544,0,0,0,8.33,3.5h.56a11.585,11.585,0,0,0,8.4-3.5c2.59-2.66,3.78-5.95,3.78-10.71Zm18.55,40.11V-41.02c0-3.71-1.96-5.95-5.11-5.95h-2.03V0h19.88V-6.86ZM-121.24,0h6.79l-10.22-43.33c-.63-2.66-1.96-3.92-4.13-3.92-2.24,0-3.5,1.19-4.13,3.92L-143.15,0h6.79l2.1-8.89h10.85Zm-11.41-15.89,3.85-16.31,3.85,16.31Zm36.19-23.94h2.73c3.64,0,5.95-1.96,5.95-5.11v-1.75h-23.8v6.86h7.98V0h7.14Zm17.15-6.86V0h7.14V-46.69Zm17.85,32.97c0,4.97,1.05,7.91,3.78,10.71A11.544,11.544,0,0,0-49.35.49h.56a11.544,11.544,0,0,0,8.33-3.5c2.73-2.8,3.78-5.74,3.78-10.71V-32.97c0-4.97-1.05-7.91-3.78-10.71a11.544,11.544,0,0,0-8.33-3.5h-.56a11.544,11.544,0,0,0-8.33,3.5c-2.73,2.8-3.78,5.74-3.78,10.71Zm7.14-20.02c0-3.92,2.03-6.58,4.97-6.58h.56c2.94,0,4.97,2.66,4.97,6.58v20.79c0,3.92-2.03,6.58-4.97,6.58h-.56c-2.94,0-4.97-2.66-4.97-6.58ZM-26.04,0h7.14V-30.03L-7.28,0h6.16V-46.69H-8.26v28.14L-17.99-44.1a4.177,4.177,0,0,0-3.99-3.08,4.078,4.078,0,0,0-2.87,1.12c-.91.91-1.19,1.96-1.19,4.41ZM26.74-46.69V0H38.92a11.658,11.658,0,0,0,8.75-3.5c2.73-2.66,3.85-5.74,3.85-10.71V-32.48c0-4.97-1.05-7.91-3.78-10.64a11.869,11.869,0,0,0-9.03-3.57ZM33.88-6.86V-37.1c0-1.68.91-2.73,2.31-2.73h2.87c3.29,0,5.32,2.52,5.32,6.58v19.81c0,4.13-1.96,6.58-5.32,6.58ZM62.16-46.69V0H69.3V-46.69ZM100.03,0h6.79L96.6-43.33c-.63-2.66-1.96-3.92-4.13-3.92-2.24,0-3.5,1.19-4.13,3.92L78.12,0h6.79l2.1-8.89H97.86ZM88.62-15.89,92.47-32.2l3.85,16.31Zm36.54-10.64v1.75c0,3.15,2.31,5.11,6.02,5.11h.49v6.72c0,3.92-2.03,6.58-4.97,6.58h-.56c-3.01,0-4.97-2.66-4.97-6.65V-33.81c0-3.78,2.1-6.51,5.04-6.51h.56a3.739,3.739,0,0,1,2.73,1.05,5.33,5.33,0,0,0,3.64,1.54,4.649,4.649,0,0,0,3.29-1.33l1.26-.98c-2.87-5.04-6.16-7.14-10.92-7.14h-.56a11.585,11.585,0,0,0-8.4,3.5c-2.59,2.66-3.78,6.02-3.78,10.71v19.25c0,4.69,1.26,8.12,3.78,10.71a11.388,11.388,0,0,0,8.26,3.5h.63a11.482,11.482,0,0,0,8.26-3.43c2.73-2.73,3.85-5.88,3.85-10.71V-26.53ZM149.03,0h7.14V-30.03L167.79,0h6.16V-46.69h-7.14v28.14L157.08-44.1a4.177,4.177,0,0,0-3.99-3.08,4.078,4.078,0,0,0-2.87,1.12c-.91.91-1.19,1.96-1.19,4.41Zm35.42-13.72c0,4.97,1.05,7.91,3.78,10.71a11.544,11.544,0,0,0,8.33,3.5h.56a11.544,11.544,0,0,0,8.33-3.5c2.73-2.8,3.78-5.74,3.78-10.71V-32.97c0-4.97-1.05-7.91-3.78-10.71a11.544,11.544,0,0,0-8.33-3.5h-.56a11.544,11.544,0,0,0-8.33,3.5c-2.73,2.8-3.78,5.74-3.78,10.71Zm7.14-20.02c0-3.92,2.03-6.58,4.97-6.58h.56c2.94,0,4.97,2.66,4.97,6.58v20.79c0,3.92-2.03,6.58-4.97,6.58h-.56c-2.94,0-4.97-2.66-4.97-6.58Zm51.03-6.3c-2.66-4.83-6.23-7.14-11.06-7.14h-1.05c-6.09,0-11.06,5.46-11.06,12.11v.63c0,3.08,1.33,5.6,4.13,7.91l11.27,9.24c1.33,1.12,1.89,2.38,1.89,4.62v.98a5.275,5.275,0,0,1-5.25,5.39h-.42c-3.01,0-5.18-2.38-5.25-5.6v-1.68h-7.14v1.61a11.546,11.546,0,0,0,3.78,9.03A11.452,11.452,0,0,0,231,.49h.63a11.4,11.4,0,0,0,8.47-3.43,11.154,11.154,0,0,0,3.78-9.1v-1.68c0-3.64-.91-5.88-3.36-7.91L228.2-31.99a4.663,4.663,0,0,1-1.61-3.36v-.35c0-2.31,2.1-4.62,4.27-4.62h.7a3.849,3.849,0,0,1,2.87,1.05,5.363,5.363,0,0,0,3.71,1.54,4.973,4.973,0,0,0,3.29-1.33Zm11.2-6.65V0h7.14V-46.69Zm41.16,6.65c-2.66-4.83-6.23-7.14-11.06-7.14h-1.05c-6.09,0-11.06,5.46-11.06,12.11v.63c0,3.08,1.33,5.6,4.13,7.91l11.27,9.24c1.33,1.12,1.89,2.38,1.89,4.62v.98a5.275,5.275,0,0,1-5.25,5.39h-.42c-3.01,0-5.18-2.38-5.25-5.6v-1.68h-7.14v1.61a11.546,11.546,0,0,0,3.78,9.03A11.452,11.452,0,0,0,283.36.49h.63a11.4,11.4,0,0,0,8.47-3.43,11.153,11.153,0,0,0,3.78-9.1v-1.68c0-3.64-.91-5.88-3.36-7.91L280.56-31.99a4.663,4.663,0,0,1-1.61-3.36v-.35c0-2.31,2.1-4.62,4.27-4.62h.7a3.849,3.849,0,0,1,2.87,1.05,5.363,5.363,0,0,0,3.71,1.54,4.973,4.973,0,0,0,3.29-1.33Z" transform="translate(294.7 47.25)" fill="#121b62"/>
</svg>
