<svg xmlns="http://www.w3.org/2000/svg" width="260.16" height="54.56" viewBox="0 0 260.16 54.56">
  <path id="パス_883" data-name="パス 883" d="M38-53.36,25.76-18.96,13.44-53.36H6.56V0h8.16V-30.4l6.96,19.52a4.294,4.294,0,0,0,4.08,3.12,4.274,4.274,0,0,0,4-3.12L36.72-30.4V0h8.16V-53.36ZM80,0h7.76L76.08-49.52C75.36-52.56,73.84-54,71.36-54c-2.56,0-4,1.36-4.72,4.48L54.96,0h7.76l2.4-10.16h12.4ZM66.96-18.16l4.4-18.64,4.4,18.64Zm54.16-30.72c-4.24-4.08-6.32-5.04-10.56-5.04h-.72a13.193,13.193,0,0,0-9.52,4C97.36-46.96,96-43.04,96-37.68v22c0,5.36,1.36,9.2,4.32,12.16a13.008,13.008,0,0,0,9.6,4.08h.72c5.44,0,9.12-2.48,12.48-8.16l-1.44-1.12a5.445,5.445,0,0,0-3.76-1.52,6.268,6.268,0,0,0-4.24,1.76,4.581,4.581,0,0,1-3.04,1.2h-.72c-3.28,0-5.76-3.12-5.76-7.44V-38.48c0-4.56,2.32-7.6,5.68-7.6h.72c1.68,0,2.64.56,4.88,2.88ZM142-31.44V-46.88c0-4.24-2.24-6.8-5.84-6.8h-2.32V0H142V-23.6h14.48V0h8.16V-53.68h-2.32c-3.6,0-5.84,2.56-5.84,6.8v15.44Zm35.44-21.92V0h8.16V-53.36ZM198.8,0h8.16V-34.32L220.24,0h7.04V-53.36h-8.16V-21.2L208-50.4c-.88-2.32-2.48-3.52-4.56-3.52a4.661,4.661,0,0,0-3.28,1.28c-1.04,1.04-1.36,2.24-1.36,5.04Zm49.76-24.08h6.48c4.16,0,6.8-2.24,6.8-5.84v-2H248.56V-42.4c0-1.92,1.04-3.12,2.64-3.12h14.4v-7.84H240.4V0h26.32V-7.84H248.56Z" transform="translate(-6.56 54)" fill="#121b62"/>
</svg>
