<svg xmlns="http://www.w3.org/2000/svg" width="385.91" height="47.74" viewBox="0 0 385.91 47.74">
  <path id="パス_820" data-name="パス 820" d="M-163.345-46.69l-10.71,30.1-10.78-30.1h-6.02V0h7.14V-26.6l6.09,17.08a3.757,3.757,0,0,0,3.57,2.73,3.74,3.74,0,0,0,3.5-2.73l6.09-17.08V0h7.14V-46.69Zm24.71,25.62h5.67c3.64,0,5.95-1.96,5.95-5.11v-1.75h-11.62V-37.1c0-1.68.91-2.73,2.31-2.73h12.6v-6.86h-22.05V0h23.03V-6.86h-15.89ZM-92.855,0h6.79l-10.22-43.33c-.63-2.66-1.96-3.92-4.13-3.92-2.24,0-3.5,1.19-4.13,3.92L-114.765,0h6.79l2.1-8.89h10.85Zm-11.41-15.89,3.85-16.31,3.85,16.31Zm49.14-24.15c-2.66-4.83-6.23-7.14-11.06-7.14h-1.05c-6.09,0-11.06,5.46-11.06,12.11v.63c0,3.08,1.33,5.6,4.13,7.91l11.27,9.24c1.33,1.12,1.89,2.38,1.89,4.62v.98a5.275,5.275,0,0,1-5.25,5.39h-.42c-3.01,0-5.18-2.38-5.25-5.6v-1.68h-7.14v1.61a11.546,11.546,0,0,0,3.78,9.03A11.452,11.452,0,0,0-66.745.49h.63a11.4,11.4,0,0,0,8.47-3.43,11.154,11.154,0,0,0,3.78-9.1v-1.68c0-3.64-.91-5.88-3.36-7.91l-12.32-10.36a4.663,4.663,0,0,1-1.61-3.36v-.35c0-2.31,2.1-4.62,4.27-4.62h.7a3.849,3.849,0,0,1,2.87,1.05,5.363,5.363,0,0,0,3.71,1.54,4.973,4.973,0,0,0,3.29-1.33Zm35.91-6.93h-2.03c-3.15,0-5.11,2.24-5.11,5.95v28.07c0,3.85-2.1,6.58-5.04,6.58h-.56c-2.87,0-4.97-2.73-4.97-6.58V-46.69h-7.14v32.97c0,4.69,1.19,8.05,3.78,10.71a11.544,11.544,0,0,0,8.33,3.5h.56A11.585,11.585,0,0,0-23-3.01c2.59-2.66,3.78-5.95,3.78-10.71ZM17.745,0l-7.28-22.26c3.08-2.38,4.48-5.46,4.48-9.8v-2.8c0-7.21-4.41-11.83-11.13-11.83H-7.8V0h7.14V-20.3h4.2L10.185,0ZM-.665-27.16v-9.87c0-1.75.91-2.8,2.31-2.8h2.17c2.73,0,3.99,1.61,3.99,4.97v2.87c0,3.15-1.33,4.83-3.64,4.83Zm34.65,6.09h5.67c3.64,0,5.95-1.96,5.95-5.11v-1.75H33.985V-37.1c0-1.68.91-2.73,2.31-2.73h12.6v-6.86H26.845V0h23.03V-6.86H33.985Zm53.27-25.62-10.71,30.1-10.78-30.1h-6.02V0h7.14V-26.6l6.09,17.08a3.757,3.757,0,0,0,3.57,2.73,3.74,3.74,0,0,0,3.5-2.73l6.09-17.08V0h7.14V-46.69Zm24.71,25.62h5.67c3.64,0,5.95-1.96,5.95-5.11v-1.75h-11.62V-37.1c0-1.68.91-2.73,2.31-2.73h12.6v-6.86h-22.05V0h23.03V-6.86h-15.89ZM137.725,0h7.14V-30.03L156.485,0h6.16V-46.69H155.5v28.14l-9.73-25.55a4.177,4.177,0,0,0-3.99-3.08,4.078,4.078,0,0,0-2.87,1.12c-.91.91-1.19,1.96-1.19,4.41Zm48.65-39.83h2.73c3.64,0,5.95-1.96,5.95-5.11v-1.75h-23.8v6.86h7.98V0h7.14Z" transform="translate(190.855 47.25)" fill="#121b62"/>
</svg>
