<svg xmlns="http://www.w3.org/2000/svg" width="165.39" height="20.46" viewBox="0 0 165.39 20.46">
  <path id="パス_821" data-name="パス 821" d="M-70-20.01-74.6-7.11l-4.62-12.9h-2.58V0h3.06V-11.4l2.61,7.32A1.61,1.61,0,0,0-74.6-2.91a1.6,1.6,0,0,0,1.5-1.17l2.61-7.32V0h3.06V-20.01Zm10.59,10.98h2.43c1.56,0,2.55-.84,2.55-2.19v-.75h-4.98V-15.9c0-.72.39-1.17.99-1.17h5.4v-2.94h-9.45V0h9.87V-2.94h-6.81ZM-39.795,0h2.91l-4.38-18.57c-.27-1.14-.84-1.68-1.77-1.68-.96,0-1.5.51-1.77,1.68L-49.185,0h2.91l.9-3.81h4.65Zm-4.89-6.81,1.65-6.99,1.65,6.99Zm21.06-10.35a5.142,5.142,0,0,0-4.74-3.06h-.45a5,5,0,0,0-4.74,5.19v.27a4.226,4.226,0,0,0,1.77,3.39l4.83,3.96a2.272,2.272,0,0,1,.81,1.98v.42a2.261,2.261,0,0,1-2.25,2.31h-.18a2.284,2.284,0,0,1-2.25-2.4v-.72h-3.06v.69a4.948,4.948,0,0,0,1.62,3.87A4.908,4.908,0,0,0-28.6.21h.27A4.887,4.887,0,0,0-24.7-1.26a4.78,4.78,0,0,0,1.62-3.9v-.72a3.883,3.883,0,0,0-1.44-3.39l-5.28-4.44a2,2,0,0,1-.69-1.44v-.15a2.041,2.041,0,0,1,1.83-1.98h.3a1.649,1.649,0,0,1,1.23.45,2.3,2.3,0,0,0,1.59.66,2.131,2.131,0,0,0,1.41-.57Zm15.39-2.97H-9.1c-1.35,0-2.19.96-2.19,2.55V-5.55c0,1.65-.9,2.82-2.16,2.82h-.24c-1.23,0-2.13-1.17-2.13-2.82V-20.01h-3.06V-5.88a6.134,6.134,0,0,0,1.62,4.59,4.947,4.947,0,0,0,3.57,1.5h.24a4.965,4.965,0,0,0,3.6-1.5,6.089,6.089,0,0,0,1.62-4.59ZM7.6,0,4.485-9.54a4.873,4.873,0,0,0,1.92-4.2v-1.2c0-3.09-1.89-5.07-4.77-5.07h-4.98V0h3.06V-8.7h1.8L4.365,0ZM-.285-11.64v-4.23c0-.75.39-1.2.99-1.2h.93c1.17,0,1.71.69,1.71,2.13v1.23c0,1.35-.57,2.07-1.56,2.07Zm14.85,2.61H17c1.56,0,2.55-.84,2.55-2.19v-.75h-4.98V-15.9c0-.72.39-1.17.99-1.17h5.4v-2.94h-9.45V0h9.87V-2.94h-6.81ZM37.4-20.01l-4.59,12.9-4.62-12.9h-2.58V0h3.06V-11.4l2.61,7.32a1.61,1.61,0,0,0,1.53,1.17,1.6,1.6,0,0,0,1.5-1.17l2.61-7.32V0h3.06V-20.01ZM47.985-9.03h2.43c1.56,0,2.55-.84,2.55-2.19v-.75h-4.98V-15.9c0-.72.39-1.17.99-1.17h5.4v-2.94h-9.45V0H54.8V-2.94h-6.81ZM59.025,0h3.06V-12.87L67.065,0h2.64V-20.01h-3.06V-7.95L62.475-18.9a1.79,1.79,0,0,0-1.71-1.32,1.748,1.748,0,0,0-1.23.48c-.39.39-.51.84-.51,1.89Zm20.85-17.07h1.17c1.56,0,2.55-.84,2.55-2.19v-.75h-10.2v2.94h3.42V0h3.06Z" transform="translate(81.795 20.25)" fill="#121b62"/>
</svg>
