<svg xmlns="http://www.w3.org/2000/svg" width="358.61" height="47.74" viewBox="0 0 358.61 47.74">
  <path id="パス_878" data-name="パス 878" d="M-177.205-46.69V0h7.14V-17.57c0-1.68.91-2.73,2.31-2.73h2.17c6.79,0,11.13-4.62,11.13-11.76v-2.73c0-7.28-4.34-11.9-11.2-11.9Zm7.14,19.53V-39.83h4.48c2.73,0,3.99,1.61,3.99,4.9v2.94c0,3.15-1.33,4.83-3.64,4.83Zm24.71,13.44c0,4.97,1.05,7.91,3.78,10.71a11.544,11.544,0,0,0,8.33,3.5h.56a11.544,11.544,0,0,0,8.33-3.5c2.73-2.8,3.78-5.74,3.78-10.71V-32.97c0-4.97-1.05-7.91-3.78-10.71a11.544,11.544,0,0,0-8.33-3.5h-.56a11.544,11.544,0,0,0-8.33,3.5c-2.73,2.8-3.78,5.74-3.78,10.71Zm7.14-20.02c0-3.92,2.03-6.58,4.97-6.58h.56c2.94,0,4.97,2.66,4.97,6.58v20.79c0,3.92-2.03,6.58-4.97,6.58h-.56c-2.94,0-4.97-2.66-4.97-6.58Zm67.9-12.95-8.12,32.83-6.37-29.89a4.057,4.057,0,0,0-4.06-3.5,4.04,4.04,0,0,0-3.99,3.5l-6.3,29.96-7.63-32.9h-6.79L-102.375,0h6.44l7.14-32.62L-81.725,0h6.44l11.83-46.69Zm22.54,25.62h5.67c3.64,0,5.95-1.96,5.95-5.11v-1.75h-11.62V-37.1c0-1.68.91-2.73,2.31-2.73h12.6v-6.86h-22.05V0h23.03V-6.86h-15.89ZM3.535,0l-7.28-22.26c3.08-2.38,4.48-5.46,4.48-9.8v-2.8c0-7.21-4.41-11.83-11.13-11.83h-11.62V0h7.14V-20.3h4.2L-4.025,0Zm-18.41-27.16v-9.87c0-1.75.91-2.8,2.31-2.8h2.17c2.73,0,3.99,1.61,3.99,4.97v2.87c0,3.15-1.33,4.83-3.64,4.83Zm43.33-19.53V0h7.14V-17.57c0-1.68.91-2.73,2.31-2.73h2.17c6.79,0,11.13-4.62,11.13-11.76v-2.73c0-7.28-4.34-11.9-11.2-11.9Zm7.14,19.53V-39.83h4.48c2.73,0,3.99,1.61,3.99,4.9v2.94c0,3.15-1.33,4.83-3.64,4.83Zm32.27,20.3V-41.02c0-3.71-1.96-5.95-5.11-5.95h-2.03V0H80.6V-6.86ZM109.305,0h6.79l-10.22-43.33c-.63-2.66-1.96-3.92-4.13-3.92-2.24,0-3.5,1.19-4.13,3.92L87.4,0h6.79l2.1-8.89h10.85ZM97.9-15.89l3.85-16.31,3.85,16.31ZM124.075,0h7.14V-30.03L142.835,0h6.16V-46.69h-7.14v28.14l-9.73-25.55a4.177,4.177,0,0,0-3.99-3.08,4.078,4.078,0,0,0-2.87,1.12c-.91.91-1.19,1.96-1.19,4.41Zm48.65-39.83h2.73c3.64,0,5.95-1.96,5.95-5.11v-1.75h-23.8v6.86h7.98V0h7.14Z" transform="translate(177.205 47.25)" fill="#121b62"/>
</svg>
