<svg xmlns="http://www.w3.org/2000/svg" width="125.85" height="20.43" viewBox="0 0 125.85 20.43">
  <path id="パス_806" data-name="パス 806" d="M-62.925-20.01V0h3.06V-20.01ZM-54.915,0h3.06V-12.87L-46.875,0h2.64V-20.01h-3.06V-7.95l-4.17-10.95a1.79,1.79,0,0,0-1.71-1.32,1.748,1.748,0,0,0-1.23.48c-.39.39-.51.84-.51,1.89Zm25.23-17.16a5.142,5.142,0,0,0-4.74-3.06h-.45a5,5,0,0,0-4.74,5.19v.27a4.226,4.226,0,0,0,1.77,3.39l4.83,3.96a2.272,2.272,0,0,1,.81,1.98v.42a2.261,2.261,0,0,1-2.25,2.31h-.18a2.284,2.284,0,0,1-2.25-2.4v-.72h-3.06v.69a4.948,4.948,0,0,0,1.62,3.87A4.908,4.908,0,0,0-34.665.21h.27a4.887,4.887,0,0,0,3.63-1.47,4.78,4.78,0,0,0,1.62-3.9v-.72a3.883,3.883,0,0,0-1.44-3.39l-5.28-4.44a2,2,0,0,1-.69-1.44v-.15a2.041,2.041,0,0,1,1.83-1.98h.3a1.649,1.649,0,0,1,1.23.45,2.3,2.3,0,0,0,1.59.66,2.131,2.131,0,0,0,1.41-.57Zm4.8-2.85V0h3.06V-7.53c0-.72.39-1.17.99-1.17h.93c2.91,0,4.77-1.98,4.77-5.04v-1.17c0-3.12-1.86-5.1-4.8-5.1Zm3.06,8.37v-5.43h1.92c1.17,0,1.71.69,1.71,2.1v1.26c0,1.35-.57,2.07-1.56,2.07ZM-8-9.03h2.43c1.56,0,2.55-.84,2.55-2.19v-.75H-8V-15.9c0-.72.39-1.17.99-1.17h5.4v-2.94h-9.45V0h9.87V-2.94H-8Zm20.07-9.3c-1.59-1.53-2.37-1.89-3.96-1.89h-.27a4.947,4.947,0,0,0-3.57,1.5,6.089,6.089,0,0,0-1.62,4.59v8.25a6.018,6.018,0,0,0,1.62,4.56A4.878,4.878,0,0,0,7.875.21h.27c2.04,0,3.42-.93,4.68-3.06l-.54-.42a2.042,2.042,0,0,0-1.41-.57,2.351,2.351,0,0,0-1.59.66,1.718,1.718,0,0,1-1.14.45h-.27c-1.23,0-2.16-1.17-2.16-2.79v-8.91c0-1.71.87-2.85,2.13-2.85h.27c.63,0,.99.21,1.83,1.08Zm9.99,1.26h1.17c1.56,0,2.55-.84,2.55-2.19v-.75h-10.2v2.94h3.42V0h3.06Zm7.35-2.94V0h3.06V-20.01Zm7.65,14.13a5.826,5.826,0,0,0,1.62,4.59,4.947,4.947,0,0,0,3.57,1.5h.24a4.947,4.947,0,0,0,3.57-1.5,5.826,5.826,0,0,0,1.62-4.59v-8.25a5.826,5.826,0,0,0-1.62-4.59,4.947,4.947,0,0,0-3.57-1.5h-.24a4.947,4.947,0,0,0-3.57,1.5,5.826,5.826,0,0,0-1.62,4.59Zm3.06-8.58c0-1.68.87-2.82,2.13-2.82h.24c1.26,0,2.13,1.14,2.13,2.82v8.91c0,1.68-.87,2.82-2.13,2.82h-.24c-1.26,0-2.13-1.14-2.13-2.82ZM52.245,0H55.3V-12.87L60.285,0h2.64V-20.01h-3.06V-7.95L55.695-18.9a1.79,1.79,0,0,0-1.71-1.32,1.748,1.748,0,0,0-1.23.48c-.39.39-.51.84-.51,1.89Z" transform="translate(62.925 20.22)" fill="#121b62"/>
</svg>
