<svg xmlns="http://www.w3.org/2000/svg" width="240.3" height="196.5" viewBox="0 0 240.3 196.5">
  <path id="パス_818" data-name="パス 818" d="M120-142.2c0-16.5-4.5-28.5-14.4-38.4a44.306,44.306,0,0,0-32.1-13.8H71.4c-26.7,0-46.5,22.2-46.5,52.2v92.4c0,16.2,4.5,28.5,14.4,38.4A43.524,43.524,0,0,0,71.4,2.1h2.1c27,0,46.5-21.9,46.5-52.2ZM89.4-47.4c0,11.7-6.6,20.1-15.9,20.1H71.4c-9.3,0-15.9-8.4-15.9-20.1v-97.2c0-12,6.6-20.1,15.9-20.1h2.1c9.3,0,15.9,8.4,15.9,20.1ZM265.2-192H167.4v29.4h56.1c3,0,4.8,1.2,4.8,3.6,0,.3-.3,1.2-.6,2.7L176.7,0h32.7l55.8-167.7Z" transform="translate(-24.9 194.4)" fill="#121b62"/>
</svg>
