<svg xmlns="http://www.w3.org/2000/svg" width="243" height="197.1" viewBox="0 0 243 197.1">
  <path id="パス_805" data-name="パス 805" d="M120-142.2c0-16.5-4.5-28.5-14.4-38.4a44.306,44.306,0,0,0-32.1-13.8H71.4c-26.7,0-46.5,22.2-46.5,52.2v92.4c0,16.2,4.5,28.5,14.4,38.4A43.524,43.524,0,0,0,71.4,2.1h2.1c27,0,46.5-21.9,46.5-52.2ZM89.4-47.4c0,11.7-6.6,20.1-15.9,20.1H71.4c-9.3,0-15.9-8.4-15.9-20.1v-97.2c0-12,6.6-20.1,15.9-20.1h2.1c9.3,0,15.9,8.4,15.9,20.1Zm178.5,18h-30V-178.2c0-9.9-6.3-16.8-15.3-16.8-4.2,0-7.8,1.5-11.4,5.1L165-144l3.6,3.6a21.483,21.483,0,0,0,15,6.6c6.6,0,13.5-3.3,19.5-9.3l4.2-4.2V-29.4H177V0h90.9Z" transform="translate(-24.9 195)" fill="#121b62"/>
</svg>
