<svg xmlns="http://www.w3.org/2000/svg" width="240.3" height="196.5" viewBox="0 0 240.3 196.5">
  <path id="パス_815" data-name="パス 815" d="M120-142.2c0-16.5-4.5-28.5-14.4-38.4a44.306,44.306,0,0,0-32.1-13.8H71.4c-26.7,0-46.5,22.2-46.5,52.2v92.4c0,16.2,4.5,28.5,14.4,38.4A43.524,43.524,0,0,0,71.4,2.1h2.1c27,0,46.5-21.9,46.5-52.2ZM89.4-47.4c0,11.7-6.6,20.1-15.9,20.1H71.4c-9.3,0-15.9-8.4-15.9-20.1v-97.2c0-12,6.6-20.1,15.9-20.1h2.1c9.3,0,15.9,8.4,15.9,20.1Zm111.3-97.2c0-12,6.6-20.4,15.9-20.4h3c7.2,0,10.8,1.5,15.6,6.3l4.5,4.2,20.7-21.6c-15.6-15-23.4-18.3-41.7-18.3h-2.1a45.211,45.211,0,0,0-32.1,13.5c-9.9,10.2-14.4,22.2-14.4,39.3v91.8c0,16.5,4.5,28.5,14.4,38.4A43.524,43.524,0,0,0,216.6,2.1h2.1c27,0,46.5-21.9,46.5-51.9V-77.7c0-16.2-4.5-28.2-14.4-38.1a44.306,44.306,0,0,0-32.1-13.8h-2.1c-7.5,0-10.8.6-15.9,3.3Zm33.9,97.2c0,11.7-6.6,20.1-15.9,20.1h-2.1c-9.3,0-15.9-8.4-15.9-20.1V-80.1c0-11.7,6.6-20.1,15.9-20.1h2.1c9.3,0,15.9,8.4,15.9,20.1Z" transform="translate(-24.9 194.4)" fill="#121b62"/>
</svg>
