<svg xmlns="http://www.w3.org/2000/svg" width="239.92" height="54.56" viewBox="0 0 239.92 54.56">
  <path id="パス_803" data-name="パス 803" d="M32.24-45.76c-3.04-5.52-7.12-8.16-12.64-8.16H18.4c-6.96,0-12.64,6.24-12.64,13.84v.72c0,3.52,1.52,6.4,4.72,9.04L23.36-19.76c1.52,1.28,2.16,2.72,2.16,5.28v1.12a6.028,6.028,0,0,1-6,6.16h-.48c-3.44,0-5.92-2.72-6-6.4v-1.92H4.88v1.84A13.2,13.2,0,0,0,9.2-3.36,13.088,13.088,0,0,0,18.96.56h.72a13.033,13.033,0,0,0,9.68-3.92c3.12-2.96,4.32-5.84,4.32-10.4v-1.92c0-4.16-1.04-6.72-3.84-9.04L15.76-36.56a5.329,5.329,0,0,1-1.84-3.84v-.4c0-2.64,2.4-5.28,4.88-5.28h.8a4.4,4.4,0,0,1,3.28,1.2,6.129,6.129,0,0,0,4.24,1.76,5.684,5.684,0,0,0,3.76-1.52ZM53.2-24.08h6.48c4.16,0,6.8-2.24,6.8-5.84v-2H53.2V-42.4c0-1.92,1.04-3.12,2.64-3.12h14.4v-7.84H45.04V0H71.36V-7.84H53.2ZM111.84,0l-8.32-25.44c3.52-2.72,5.12-6.24,5.12-11.2v-3.2c0-8.24-5.04-13.52-12.72-13.52H82.64V0H90.8V-23.2h4.8L103.2,0ZM90.8-31.04V-42.32c0-2,1.04-3.2,2.64-3.2h2.48c3.12,0,4.56,1.84,4.56,5.68v3.28c0,3.6-1.52,5.52-4.16,5.52Zm60.08-22.32h-8l-8.96,37.52-9.04-37.52h-7.92l12.4,50.24A4.667,4.667,0,0,0,133.84.64a4.607,4.607,0,0,0,4.56-3.76Zm9.52,0V0h8.16V-53.36Zm45.52,4.48c-4.24-4.08-6.32-5.04-10.56-5.04h-.72a13.193,13.193,0,0,0-9.52,4c-2.96,2.96-4.32,6.88-4.32,12.24v22c0,5.36,1.36,9.2,4.32,12.16a13.008,13.008,0,0,0,9.6,4.08h.72c5.44,0,9.12-2.48,12.48-8.16l-1.44-1.12a5.445,5.445,0,0,0-3.76-1.52,6.268,6.268,0,0,0-4.24,1.76,4.581,4.581,0,0,1-3.04,1.2h-.72c-3.28,0-5.76-3.12-5.76-7.44V-38.48c0-4.56,2.32-7.6,5.68-7.6h.72c1.68,0,2.64.56,4.88,2.88Zm20.72,24.8h6.48c4.16,0,6.8-2.24,6.8-5.84v-2H226.64V-42.4c0-1.92,1.04-3.12,2.64-3.12h14.4v-7.84h-25.2V0H244.8V-7.84H226.64Z" transform="translate(-4.88 53.92)" fill="#121b62"/>
</svg>
