<svg xmlns="http://www.w3.org/2000/svg" width="242.7" height="196.5" viewBox="0 0 242.7 196.5">
  <path id="パス_808" data-name="パス 808" d="M120-142.2c0-16.5-4.5-28.5-14.4-38.4a44.306,44.306,0,0,0-32.1-13.8H71.4c-26.7,0-46.5,22.2-46.5,52.2v92.4c0,16.2,4.5,28.5,14.4,38.4A43.524,43.524,0,0,0,71.4,2.1h2.1c27,0,46.5-21.9,46.5-52.2ZM89.4-47.4c0,11.7-6.6,20.1-15.9,20.1H71.4c-9.3,0-15.9-8.4-15.9-20.1v-97.2c0-12,6.6-20.1,15.9-20.1h2.1c9.3,0,15.9,8.4,15.9,20.1Zm77.7-92.1h30.6v-6.6c0-10.5,7.2-18.9,15.9-18.9h2.1c9.3,0,15.9,8.4,15.9,20.1v6.3c0,9.3-1.2,12.6-8.7,20.4L179.7-72c-10.2,10.8-13.5,19.5-13.5,34.8V0H267.6V-29.4H206.7c-6.3,0-10.5-3.6-10.5-9,0-5.1,2.1-10.2,6.6-14.7l42-45c12-12.3,17.1-24.9,17.1-40.5v-5.7c0-28.5-19.8-50.1-46.2-50.1h-2.1c-24.9,0-45.6,21.3-46.5,47.4Z" transform="translate(-24.9 194.4)" fill="#121b62"/>
</svg>
