<svg xmlns="http://www.w3.org/2000/svg" width="239.7" height="196.8" viewBox="0 0 239.7 196.8">
  <path id="パス_810" data-name="パス 810" d="M120-142.2c0-16.5-4.5-28.5-14.4-38.4a44.306,44.306,0,0,0-32.1-13.8H71.4c-26.7,0-46.5,22.2-46.5,52.2v92.4c0,16.2,4.5,28.5,14.4,38.4A43.524,43.524,0,0,0,71.4,2.1h2.1c27,0,46.5-21.9,46.5-52.2ZM89.4-47.4c0,11.7-6.6,20.1-15.9,20.1H71.4c-9.3,0-15.9-8.4-15.9-20.1v-97.2c0-12,6.6-20.1,15.9-20.1h2.1c9.3,0,15.9,8.4,15.9,20.1Zm171.9-97.5c0-28.2-20.1-49.8-45.9-49.8h-2.1c-24.9,0-46.5,21.9-46.8,47.1v7.5h30.6v-6.6c0-9.9,7.2-18.3,16.2-18.3h2.1c9,0,15.6,8.1,15.6,19.8v4.2c0,9.6-.9,12.9-4.8,17.1s-6.3,5.1-13.5,5.1h-3.3v30h5.1c8.4,0,10.5.6,14.4,4.2,4.2,4.2,5.4,7.8,5.4,16.2v21c0,12.6-6.9,20.1-18,20.1h-4.2c-5.1,0-7.8-.9-12-4.5-5.7-4.5-9.6-6-15.3-6-4.5,0-8.1,1.5-13.5,5.4l-4.5,3.6c5.4,10.2,7.5,13.2,11.4,17.4C187.5-2.1,198,2.1,212.1,2.1h4.2c28.5,0,48.3-21.3,48.3-51.9V-73.2c0-14.7-3.9-24-12.9-32.1,6.9-6.9,9.6-15.6,9.6-30.3Z" transform="translate(-24.9 194.7)" fill="#121b62"/>
</svg>
