<svg xmlns="http://www.w3.org/2000/svg" width="607.81" height="47.81" viewBox="0 0 607.81 47.81">
  <path id="パス_882" data-name="パス 882" d="M-276.325-46.69h-7l-7.84,32.83-7.91-32.83h-6.93l10.85,43.96a4.084,4.084,0,0,0,3.92,3.29,4.031,4.031,0,0,0,3.99-3.29Zm6.72,32.97c0,4.97,1.05,7.91,3.78,10.71a11.544,11.544,0,0,0,8.33,3.5h.56a11.544,11.544,0,0,0,8.33-3.5c2.73-2.8,3.78-5.74,3.78-10.71V-32.97c0-4.97-1.05-7.91-3.78-10.71a11.544,11.544,0,0,0-8.33-3.5h-.56a11.544,11.544,0,0,0-8.33,3.5c-2.73,2.8-3.78,5.74-3.78,10.71Zm7.14-20.02c0-3.92,2.03-6.58,4.97-6.58h.56c2.94,0,4.97,2.66,4.97,6.58v20.79c0,3.92-2.03,6.58-4.97,6.58h-.56c-2.94,0-4.97-2.66-4.97-6.58Zm35.42,26.88V-41.02c0-3.71-1.96-5.95-5.11-5.95h-2.03V0h19.88V-6.86Zm45.64-40.11h-2.03c-3.15,0-5.11,2.24-5.11,5.95v28.07c0,3.85-2.1,6.58-5.04,6.58h-.56c-2.87,0-4.97-2.73-4.97-6.58V-46.69h-7.14v32.97c0,4.69,1.19,8.05,3.78,10.71a11.544,11.544,0,0,0,8.33,3.5h.56a11.585,11.585,0,0,0,8.4-3.5c2.59-2.66,3.78-5.95,3.78-10.71ZM-170,0h7.14V-30.03L-151.235,0h6.16V-46.69h-7.14v28.14l-9.73-25.55a4.177,4.177,0,0,0-3.99-3.08,4.078,4.078,0,0,0-2.87,1.12c-.91.91-1.19,1.96-1.19,4.41Zm48.65-39.83h2.73c3.64,0,5.95-1.96,5.95-5.11v-1.75h-23.8v6.86h7.98V0h7.14ZM-88.375,0h6.79l-10.22-43.33c-.63-2.66-1.96-3.92-4.13-3.92-2.24,0-3.5,1.19-4.13,3.92L-110.285,0h6.79l2.1-8.89h10.85Zm-11.41-15.89,3.85-16.31,3.85,16.31ZM-48.055,0l-7.28-22.26c3.08-2.38,4.48-5.46,4.48-9.8v-2.8c0-7.21-4.41-11.83-11.13-11.83h-11.62V0h7.14V-20.3h4.2L-55.615,0Zm-18.41-27.16v-9.87c0-1.75.91-2.8,2.31-2.8h2.17c2.73,0,3.99,1.61,3.99,4.97v2.87c0,3.15-1.33,4.83-3.64,4.83Zm22.12-19.53,10.36,23.03a7.353,7.353,0,0,1,.77,3.36V0h7.14V-20.37a7.276,7.276,0,0,1,.77-3.29l10.43-23.03h-7.7l-7.07,16.17-7-16.17Zm52.5,0V0h7.14V-46.69ZM26.845,0h7.14V-30.03L45.6,0h6.16V-46.69h-7.14v28.14L34.895-44.1a4.177,4.177,0,0,0-3.99-3.08,4.078,4.078,0,0,0-2.87,1.12c-.91.91-1.19,1.96-1.19,4.41Zm58.87-40.04c-2.66-4.83-6.23-7.14-11.06-7.14H73.6c-6.09,0-11.06,5.46-11.06,12.11v.63c0,3.08,1.33,5.6,4.13,7.91l11.27,9.24c1.33,1.12,1.89,2.38,1.89,4.62v.98a5.275,5.275,0,0,1-5.25,5.39h-.42c-3.01,0-5.18-2.38-5.25-5.6v-1.68h-7.14v1.61a11.546,11.546,0,0,0,3.78,9.03A11.452,11.452,0,0,0,74.095.49h.63a11.4,11.4,0,0,0,8.47-3.43,11.154,11.154,0,0,0,3.78-9.1v-1.68c0-3.64-.91-5.88-3.36-7.91L71.295-31.99a4.663,4.663,0,0,1-1.61-3.36v-.35c0-2.31,2.1-4.62,4.27-4.62h.7a3.849,3.849,0,0,1,2.87,1.05,5.363,5.363,0,0,0,3.71,1.54,4.973,4.973,0,0,0,3.29-1.33Zm11.2-6.65V0h7.14V-17.57c0-1.68.91-2.73,2.31-2.73h2.17c6.79,0,11.13-4.62,11.13-11.76v-2.73c0-7.28-4.34-11.9-11.2-11.9Zm7.14,19.53V-39.83h4.48c2.73,0,3.99,1.61,3.99,4.9v2.94c0,3.15-1.33,4.83-3.64,4.83Zm32.27,6.09h5.67c3.64,0,5.95-1.96,5.95-5.11v-1.75h-11.62V-37.1c0-1.68.91-2.73,2.31-2.73h12.6v-6.86h-22.05V0h23.03V-6.86h-15.89Zm46.83-21.7c-3.71-3.57-5.53-4.41-9.24-4.41h-.63a11.544,11.544,0,0,0-8.33,3.5c-2.59,2.59-3.78,6.02-3.78,10.71v19.25c0,4.69,1.19,8.05,3.78,10.64a11.382,11.382,0,0,0,8.4,3.57h.63c4.76,0,7.98-2.17,10.92-7.14l-1.26-.98a4.765,4.765,0,0,0-3.29-1.33,5.485,5.485,0,0,0-3.71,1.54,4.008,4.008,0,0,1-2.66,1.05h-.63c-2.87,0-5.04-2.73-5.04-6.51V-33.67c0-3.99,2.03-6.65,4.97-6.65h.63c1.47,0,2.31.49,4.27,2.52Zm23.31,2.94h2.73c3.64,0,5.95-1.96,5.95-5.11v-1.75h-23.8v6.86h7.98V0h7.14Zm17.15-6.86V0h7.14V-46.69Zm17.85,32.97c0,4.97,1.05,7.91,3.78,10.71a11.544,11.544,0,0,0,8.33,3.5h.56a11.544,11.544,0,0,0,8.33-3.5c2.73-2.8,3.78-5.74,3.78-10.71V-32.97c0-4.97-1.05-7.91-3.78-10.71a11.544,11.544,0,0,0-8.33-3.5h-.56a11.544,11.544,0,0,0-8.33,3.5c-2.73,2.8-3.78,5.74-3.78,10.71Zm7.14-20.02c0-3.92,2.03-6.58,4.97-6.58h.56c2.94,0,4.97,2.66,4.97,6.58v20.79c0,3.92-2.03,6.58-4.97,6.58h-.56c-2.94,0-4.97-2.66-4.97-6.58ZM276.885,0h7.14V-30.03L295.645,0h6.16V-46.69h-7.14v28.14l-9.73-25.55a4.177,4.177,0,0,0-3.99-3.08,4.078,4.078,0,0,0-2.87,1.12c-.91.91-1.19,1.96-1.19,4.41Z" transform="translate(306.005 47.25)" fill="#121b62"/>
</svg>
